<svg width="126" height="30" viewBox="0 0 126 30" fill="none" xmlns="http://www.w3.org/2000/svg">
<path fill-rule="evenodd" clip-rule="evenodd" d="M3.88387 12.314L5.59325 14.0247C6.08894 14.5207 6.08894 15.3327 5.59325 15.8288L3.88387 17.5395C3.38818 18.0356 2.57684 18.0356 2.08114 17.5395L0.371772 15.8288C-0.123924 15.3327 -0.123924 14.5207 0.371772 14.0247L2.08114 12.314C2.57684 11.8179 3.38707 11.8179 3.88387 12.314Z" fill="#06A39C"/>
<path fill-rule="evenodd" clip-rule="evenodd" d="M3.88387 22.2552L5.59325 23.9659C6.08894 24.462 6.08894 25.274 5.59325 25.7701L3.88387 27.4808C3.38818 27.9769 2.57684 27.9769 2.08114 27.4808L0.371772 25.7701C-0.123924 25.274 -0.123924 24.462 0.371772 23.9659L2.08114 22.2552C2.57684 21.758 3.38707 21.758 3.88387 22.2552Z" fill="#06A39C"/>
<path fill-rule="evenodd" clip-rule="evenodd" d="M13.8165 2.37206L15.5259 4.08277C16.0216 4.57885 16.0216 5.39083 15.5259 5.88692L13.8165 7.59763C13.3208 8.09371 12.5095 8.09371 12.0138 7.59763L10.3044 5.88692C9.80869 5.39083 9.80869 4.57885 10.3044 4.08277L12.0138 2.37206C12.5106 1.87598 13.3208 1.87598 13.8165 2.37206Z" fill="#30D2A3"/>
<path fill-rule="evenodd" clip-rule="evenodd" d="M13.8165 12.314L15.5259 14.0247C16.0216 14.5207 16.0216 15.3327 15.5259 15.8288L13.8165 17.5395C13.3208 18.0356 12.5095 18.0356 12.0138 17.5395L10.3044 15.8288C9.80869 15.3327 9.80869 14.5207 10.3044 14.0247L12.0138 12.314C12.5106 11.8179 13.3208 11.8179 13.8165 12.314Z" fill="#30D2A3"/>
<path fill-rule="evenodd" clip-rule="evenodd" d="M13.8165 22.2552L15.5259 23.9659C16.0216 24.462 16.0216 25.274 15.5259 25.7701L13.8165 27.4808C13.3208 27.9769 12.5095 27.9769 12.0138 27.4808L10.3044 25.7701C9.80869 25.274 9.80869 24.462 10.3044 23.9659L12.0138 22.2552C12.5106 21.758 13.3208 21.758 13.8165 22.2552Z" fill="#06A39C"/>
<path fill-rule="evenodd" clip-rule="evenodd" d="M23.7508 2.37206L25.4602 4.08277C25.9559 4.57885 25.9559 5.39083 25.4602 5.88692L23.7508 7.59763C23.2551 8.09371 22.4438 8.09371 21.9481 7.59763L20.2387 5.88692C19.743 5.39083 19.743 4.57885 20.2387 4.08277L21.9481 2.37206C22.4438 1.87598 23.2551 1.87598 23.7508 2.37206Z" fill="#30D2A3"/>
<path fill-rule="evenodd" clip-rule="evenodd" d="M23.7508 12.314L25.4602 14.0247C25.9559 14.5207 25.9559 15.3327 25.4602 15.8288L23.7508 17.5395C23.2551 18.0356 22.4438 18.0356 21.9481 17.5395L20.2387 15.8288C19.743 15.3327 19.743 14.5207 20.2387 14.0247L21.9481 12.314C22.4438 11.8179 23.2551 11.8179 23.7508 12.314Z" fill="#30D2A3"/>
<path fill-rule="evenodd" clip-rule="evenodd" d="M23.7508 22.2552L25.4602 23.9659C25.9559 24.462 25.9559 25.274 25.4602 25.7701L23.7508 27.4808C23.2551 27.9769 22.4438 27.9769 21.9481 27.4808L20.2387 25.7701C19.743 25.274 19.743 24.462 20.2387 23.9659L21.9481 22.2552C22.4438 21.758 23.2551 21.758 23.7508 22.2552Z" fill="#06A39C"/>
<path fill-rule="evenodd" clip-rule="evenodd" d="M3.88387 2.37206L5.59325 4.08277C6.08894 4.57885 6.08894 5.39083 5.59325 5.88692L3.88387 7.59763C3.38818 8.09371 2.57684 8.09371 2.08114 7.59763L0.371772 5.88692C-0.123924 5.39083 -0.123924 4.57885 0.371772 4.08277L2.08114 2.37206C2.57684 1.87598 3.38707 1.87598 3.88387 2.37206Z" fill="#30D2A3"/>
<path fill-rule="evenodd" clip-rule="evenodd" d="M40.722 14.9681L41.3066 16.4419C41.3766 16.6288 41.5167 16.6989 41.7034 16.6288L43.3627 16.0904C43.6195 16.0204 43.6428 15.8101 43.5728 15.6222L43.2694 14.64C43.0126 13.798 42.966 12.9326 42.966 11.9972V7.92732C42.966 4.76952 40.4653 3.53042 37.7078 3.53042C35.3705 3.53042 33.7823 4.16221 32.2163 5.30787C32.0529 5.42466 32.0062 5.65824 32.1696 5.84621L33.081 7.13202C33.1977 7.29553 33.4544 7.31889 33.6422 7.2021C34.9515 6.38345 36.0029 6.0798 37.7089 6.0798C39.1115 6.0798 40.2563 6.52472 40.2563 7.62366V7.90396L36.1429 8.44231C33.2688 8.81604 31.5627 10.3132 31.5627 12.6757C31.5627 15.0616 33.4322 16.6521 36.1196 16.6521C37.989 16.6521 39.4616 16.0671 40.6064 14.9681H40.722ZM40.2541 12.3253C39.4361 13.4243 38.1746 14.1028 36.3986 14.1028C34.9259 14.1028 34.2724 13.4943 34.2724 12.5355C34.2724 11.7169 34.857 11.0851 36.1418 10.8749L40.2552 10.1964V12.3253H40.2541ZM46.2836 0C46.0735 0 45.9568 0.116791 45.9568 0.327015V16.1372C45.9568 16.3474 46.0735 16.4642 46.2836 16.4642H47.8729C48.0596 16.4642 48.1763 16.3707 48.223 16.1839L48.4097 15.3419L48.5731 15.3185C49.5312 16.2539 50.9104 16.6521 52.3353 16.6521C56.0741 16.6521 58.9027 14.0093 58.9027 10.0807C58.9027 6.15209 56.1452 3.53264 52.3353 3.53264C50.9327 3.53264 49.7645 3.88302 48.6665 4.7951V0.328128C48.6665 0.117904 48.5498 0.00111338 48.3397 0.00111338L46.2836 0ZM48.6676 7.62477C49.6723 6.5959 50.677 6.10427 52.3364 6.10427C54.557 6.10427 56.2153 7.64813 56.2153 10.0807C56.2153 12.5367 54.5559 14.0805 52.3364 14.0805C50.7704 14.0805 49.6723 13.5889 48.6676 12.4899V7.62477ZM61.1 3.7184C60.8899 3.7184 60.7732 3.83519 60.7732 4.04541V11.0618C60.7732 14.9437 62.8994 16.651 66.078 16.651C67.4807 16.651 68.7655 16.2539 69.8636 15.2473H70.0036L70.2137 16.1828C70.2603 16.3696 70.377 16.4631 70.5871 16.4631H72.2465C72.4565 16.4631 72.5732 16.3463 72.5732 16.136V4.04652C72.5732 3.8363 72.4565 3.71951 72.2465 3.71951H70.1903C69.9803 3.71951 69.8636 3.8363 69.8636 4.04652V12.4432C69.0222 13.5422 67.6663 14.0805 66.3581 14.0805C64.3954 14.0805 63.484 13.1217 63.484 10.8994V4.04652C63.484 3.8363 63.3673 3.71951 63.1572 3.71951H61.1V3.7184ZM76.3598 3.76512L74.8405 3.90527C74.6538 3.92863 74.5604 4.04541 74.5604 4.20892V5.91629C74.5604 6.12651 74.6771 6.2433 74.8872 6.2433H76.3365V12.3709C76.3365 14.8736 77.5513 16.651 80.3565 16.651C81.548 16.651 82.436 16.3941 83.3007 15.8324C83.5107 15.7156 83.5574 15.5754 83.4641 15.3641L82.8328 13.867C82.7628 13.7035 82.6227 13.61 82.3649 13.7268C81.8736 13.9838 81.3135 14.1005 80.6822 14.1005C79.6774 14.1005 79.0462 13.4921 79.0462 12.2997V6.24219H82.5049C82.715 6.24219 82.8317 6.1254 82.8317 5.91517V4.0443C82.8317 3.83408 82.715 3.71729 82.5049 3.71729H79.0462V1.23798C79.0462 1.02776 78.8828 0.910968 78.7194 0.910968H76.9444C76.7577 0.910968 76.641 1.02776 76.6177 1.23798L76.3598 3.76512ZM95.8976 12.7936C95.7809 12.6535 95.6408 12.6534 95.5241 12.7702C94.3093 13.7758 93.0468 14.1039 91.4574 14.1039C89.4013 14.1039 87.952 12.9816 87.5074 11.3676H97.5091C97.6959 11.3676 97.7892 11.2508 97.7892 11.0406V10.1052C97.7892 6.29336 95.1251 3.53264 91.3396 3.53264C87.5308 3.53264 84.6789 6.29225 84.6789 10.1052C84.6789 13.8703 87.4596 16.6533 91.4563 16.6533C93.3257 16.6533 95.3119 16.1149 96.9946 14.6889C97.1113 14.5722 97.1346 14.432 97.0179 14.3152L95.8976 12.7936ZM91.3396 6.08091C93.1857 6.08091 94.8451 7.20322 95.0318 8.84051H87.483C87.8575 7.22657 89.4469 6.08091 91.3396 6.08091ZM106.249 3.53153C102.511 3.53153 99.6586 6.29113 99.6586 10.0562C99.6586 13.8214 102.509 16.6521 106.249 16.6521C108.587 16.6521 110.62 15.6233 111.811 13.659C111.904 13.5422 111.881 13.402 111.764 13.2852L110.292 12.1162C110.152 11.9994 110.035 11.9994 109.918 12.1162C108.96 13.5199 107.839 14.0805 106.249 14.0805C103.935 14.0805 102.371 12.3732 102.371 10.0574C102.371 7.74157 103.913 6.10427 106.249 6.10427C107.839 6.10427 108.89 6.68934 109.848 7.99851C109.942 8.1153 110.128 8.20873 110.292 8.04522L111.764 6.92291C111.881 6.82948 111.904 6.71269 111.811 6.54918C110.691 4.63048 108.447 3.53153 106.249 3.53153ZM114.429 0C114.219 0 114.103 0.116791 114.103 0.327015V16.1372C114.103 16.3474 114.219 16.4642 114.429 16.4642H116.486C116.696 16.4642 116.812 16.3474 116.812 16.1372V7.57805C117.747 6.54918 118.845 6.10427 120.224 6.10427C122.094 6.10427 123.192 7.17985 123.192 9.42557V16.1383C123.192 16.3485 123.309 16.4653 123.519 16.4653H125.575C125.785 16.4653 125.902 16.3485 125.902 16.1383V9.33214C125.902 5.49696 123.518 3.53153 120.223 3.53153C118.914 3.53153 117.769 3.90526 116.811 4.81734V0.327015C116.811 0.116791 116.695 0 116.485 0H114.429Z" fill="#00094A"/>
<path d="M33.8048 28.0587C33.4477 28.0587 33.1043 28.0105 32.7747 27.9143C32.445 27.8124 32.1868 27.685 32 27.5321L32.3297 26.8867C32.5219 27.0282 32.7554 27.1415 33.0302 27.2264C33.3049 27.3113 33.5823 27.3538 33.8625 27.3538C34.5548 27.3538 34.9009 27.15 34.9009 26.7423C34.9009 26.6064 34.8542 26.4989 34.7608 26.4196C34.6674 26.3403 34.5493 26.2837 34.4064 26.2498C34.2691 26.2101 34.0713 26.1677 33.8131 26.1224C33.4615 26.0657 33.173 26.0006 32.9477 25.927C32.728 25.8534 32.5384 25.7289 32.3791 25.5534C32.2198 25.3778 32.1401 25.1316 32.1401 24.8145C32.1401 24.4069 32.3049 24.0813 32.6346 23.8379C32.9642 23.5887 33.4065 23.4642 33.9614 23.4642C34.2526 23.4642 34.5438 23.501 34.835 23.5746C35.1262 23.6482 35.3652 23.7473 35.552 23.8718L35.2141 24.5173C34.857 24.2795 34.4367 24.1606 33.9532 24.1606C33.618 24.1606 33.3626 24.2172 33.1867 24.3304C33.0109 24.4437 32.923 24.5937 32.923 24.7805C32.923 24.9277 32.9725 25.0438 33.0714 25.1287C33.1703 25.2137 33.2911 25.2759 33.434 25.3156C33.5823 25.3552 33.7884 25.4005 34.0521 25.4515C34.4037 25.5137 34.6867 25.5817 34.9009 25.6553C35.1207 25.7232 35.3075 25.8421 35.4613 26.012C35.6152 26.1818 35.6921 26.4196 35.6921 26.7253C35.6921 27.133 35.5218 27.4585 35.1811 27.702C34.846 27.9398 34.3872 28.0587 33.8048 28.0587Z" fill="#00094A"/>
<path d="M38.5516 28.0587C38.1176 28.0587 37.7275 27.9596 37.3814 27.7614C37.0352 27.5633 36.7633 27.2915 36.5655 26.9461C36.3732 26.5951 36.277 26.1988 36.277 25.7572C36.277 25.3156 36.3732 24.9221 36.5655 24.5767C36.7633 24.2257 37.0352 23.9539 37.3814 23.7614C37.7275 23.5633 38.1176 23.4642 38.5516 23.4642C38.9857 23.4642 39.373 23.5633 39.7136 23.7614C40.0598 23.9539 40.329 24.2257 40.5213 24.5767C40.7191 24.9221 40.818 25.3156 40.818 25.7572C40.818 26.1988 40.7191 26.5951 40.5213 26.9461C40.329 27.2915 40.0598 27.5633 39.7136 27.7614C39.373 27.9596 38.9857 28.0587 38.5516 28.0587ZM38.5516 27.3453C38.8318 27.3453 39.0818 27.2802 39.3016 27.15C39.5268 27.0141 39.7026 26.8272 39.829 26.5895C39.9554 26.346 40.0186 26.0686 40.0186 25.7572C40.0186 25.4458 39.9554 25.1712 39.829 24.9334C39.7026 24.69 39.5268 24.5031 39.3016 24.3729C39.0818 24.2427 38.8318 24.1776 38.5516 24.1776C38.2714 24.1776 38.0187 24.2427 37.7934 24.3729C37.5736 24.5031 37.3978 24.69 37.266 24.9334C37.1396 25.1712 37.0764 25.4458 37.0764 25.7572C37.0764 26.0686 37.1396 26.346 37.266 26.5895C37.3978 26.8272 37.5736 27.0141 37.7934 27.15C38.0187 27.2802 38.2714 27.3453 38.5516 27.3453Z" fill="#00094A"/>
<path d="M43.5109 22.3262C43.0384 22.3262 42.8022 22.5895 42.8022 23.116V23.5067H44.0713V24.1776H42.8187V28.0077H42.0275V24.1776H41.2858V23.5067H42.0275V23.1075C42.0275 22.6602 42.1539 22.3064 42.4066 22.0459C42.6593 21.7855 43.0137 21.6553 43.4697 21.6553C43.6455 21.6553 43.8104 21.6779 43.9642 21.7232C44.118 21.7685 44.2499 21.8336 44.3598 21.9185L44.1208 22.5385C43.9395 22.397 43.7362 22.3262 43.5109 22.3262Z" fill="#00094A"/>
<path d="M47.2734 27.7444C47.158 27.8464 47.0152 27.9256 46.8448 27.9822C46.6745 28.0332 46.4987 28.0587 46.3174 28.0587C45.8779 28.0587 45.5372 27.9369 45.2955 27.6935C45.0537 27.45 44.9329 27.1018 44.9329 26.6489V24.1776H44.1911V23.5067H44.9329V22.5215H45.724V23.5067H46.9767V24.1776H45.724V26.6149C45.724 26.8584 45.7817 27.0452 45.8971 27.1754C46.018 27.3057 46.1883 27.3708 46.408 27.3708C46.6498 27.3708 46.8558 27.3 47.0261 27.1585L47.2734 27.7444Z" fill="#00094A"/>
<path d="M54.7589 23.5067L53.1271 28.0077H52.3689L51.108 24.5937L49.8306 28.0077H49.0724L47.4489 23.5067H48.1988L49.468 27.0905L50.7866 23.5067H51.4541L52.748 27.1075L54.0501 23.5067H54.7589Z" fill="#00094A"/>
<path d="M57.0155 23.4642C57.6198 23.4642 58.0813 23.6171 58.4 23.9228C58.7241 24.2285 58.8862 24.6843 58.8862 25.2901V28.0077H58.1363V27.4132C58.0044 27.6227 57.8149 27.7841 57.5676 27.8973C57.3259 28.0049 57.0374 28.0587 56.7023 28.0587C56.2133 28.0587 55.8205 27.9369 55.5238 27.6935C55.2326 27.45 55.087 27.1301 55.087 26.7338C55.087 26.3375 55.2271 26.0205 55.5073 25.7827C55.7875 25.5392 56.2325 25.4175 56.8424 25.4175H58.0951V25.2561C58.0951 24.9051 57.9962 24.6362 57.7984 24.4493C57.6006 24.2625 57.3094 24.1691 56.9248 24.1691C56.6666 24.1691 56.4138 24.2144 56.1666 24.305C55.9194 24.3899 55.7106 24.5059 55.5403 24.6532L55.2106 24.0417C55.4359 23.8548 55.7051 23.7133 56.0183 23.6171C56.3314 23.5151 56.6638 23.4642 57.0155 23.4642ZM56.8342 27.4302C57.1363 27.4302 57.3973 27.3623 57.6171 27.2264C57.8368 27.0849 57.9962 26.8867 58.0951 26.6319V26.0035H56.8754C56.2051 26.0035 55.8699 26.2356 55.8699 26.6999C55.8699 26.9263 55.9551 27.1047 56.1254 27.2349C56.2957 27.3651 56.532 27.4302 56.8342 27.4302Z" fill="#00094A"/>
<path d="M61.1085 24.2625C61.2459 24.0021 61.4492 23.8039 61.7184 23.668C61.9876 23.5321 62.3145 23.4642 62.6991 23.4642V24.254C62.6551 24.2483 62.5947 24.2455 62.5178 24.2455C62.0892 24.2455 61.7514 24.3786 61.5041 24.6447C61.2624 24.9051 61.1415 25.2788 61.1415 25.7657V28.0077H60.3503V23.5067H61.1085V24.2625Z" fill="#00094A"/>
<path d="M67.5815 25.7827C67.5815 25.8449 67.576 25.927 67.5651 26.0289H64.0213C64.0708 26.4253 64.2383 26.7452 64.524 26.9886C64.8152 27.2264 65.1751 27.3453 65.6036 27.3453C66.1256 27.3453 66.5459 27.1641 66.8645 26.8018L67.3013 27.3283C67.1035 27.5661 66.8563 27.7473 66.5596 27.8718C66.2684 27.9964 65.9415 28.0587 65.5789 28.0587C65.1174 28.0587 64.7081 27.9624 64.351 27.7699C63.9938 27.5718 63.7164 27.2972 63.5186 26.9461C63.3263 26.5951 63.2301 26.1988 63.2301 25.7572C63.2301 25.3212 63.3235 24.9277 63.5103 24.5767C63.7026 24.2257 63.9636 23.9539 64.2933 23.7614C64.6284 23.5633 65.0048 23.4642 65.4223 23.4642C65.8399 23.4642 66.2107 23.5633 66.5349 23.7614C66.8645 23.9539 67.12 24.2257 67.3013 24.5767C67.4881 24.9277 67.5815 25.3297 67.5815 25.7827ZM65.4223 24.1521C65.0432 24.1521 64.7246 24.271 64.4663 24.5088C64.2136 24.7466 64.0653 25.058 64.0213 25.443H66.8233C66.7794 25.0636 66.6283 24.7551 66.3701 24.5173C66.1173 24.2738 65.8014 24.1521 65.4223 24.1521Z" fill="#00094A"/>
<path d="M75.014 21.7062V28.0077H74.2558V27.2943C74.08 27.5435 73.8575 27.7331 73.5883 27.8633C73.319 27.9936 73.0224 28.0587 72.6982 28.0587C72.2751 28.0587 71.896 27.9624 71.5609 27.7699C71.2258 27.5774 70.962 27.3085 70.7697 26.9631C70.5829 26.6121 70.4895 26.2101 70.4895 25.7572C70.4895 25.3042 70.5829 24.9051 70.7697 24.5597C70.962 24.2144 71.2258 23.9454 71.5609 23.7529C71.896 23.5604 72.2751 23.4642 72.6982 23.4642C73.0114 23.4642 73.2998 23.5265 73.5635 23.651C73.8273 23.7699 74.047 23.9483 74.2228 24.1861V21.7062H75.014ZM72.7641 27.3453C73.0388 27.3453 73.2888 27.2802 73.5141 27.15C73.7393 27.0141 73.9152 26.8272 74.0415 26.5895C74.1679 26.346 74.2311 26.0686 74.2311 25.7572C74.2311 25.4458 74.1679 25.1712 74.0415 24.9334C73.9152 24.69 73.7393 24.5031 73.5141 24.3729C73.2888 24.2427 73.0388 24.1776 72.7641 24.1776C72.4839 24.1776 72.2312 24.2427 72.0059 24.3729C71.7862 24.5031 71.6104 24.69 71.4785 24.9334C71.3521 25.1712 71.2889 25.4458 71.2889 25.7572C71.2889 26.0686 71.3521 26.346 71.4785 26.5895C71.6104 26.8272 71.7862 27.0141 72.0059 27.15C72.2312 27.2802 72.4839 27.3453 72.7641 27.3453Z" fill="#00094A"/>
<path d="M80.4585 25.7827C80.4585 25.8449 80.453 25.927 80.442 26.0289H76.8983C76.9477 26.4253 77.1153 26.7452 77.401 26.9886C77.6922 27.2264 78.0521 27.3453 78.4806 27.3453C79.0025 27.3453 79.4229 27.1641 79.7415 26.8018L80.1783 27.3283C79.9805 27.5661 79.7333 27.7473 79.4366 27.8718C79.1454 27.9964 78.8185 28.0587 78.4559 28.0587C77.9944 28.0587 77.5851 27.9624 77.2279 27.7699C76.8708 27.5718 76.5934 27.2972 76.3956 26.9461C76.2033 26.5951 76.1071 26.1988 76.1071 25.7572C76.1071 25.3212 76.2005 24.9277 76.3873 24.5767C76.5796 24.2257 76.8406 23.9539 77.1702 23.7614C77.5054 23.5633 77.8817 23.4642 78.2993 23.4642C78.7169 23.4642 79.0877 23.5633 79.4119 23.7614C79.7415 23.9539 79.997 24.2257 80.1783 24.5767C80.3651 24.9277 80.4585 25.3297 80.4585 25.7827ZM78.2993 24.1521C77.9202 24.1521 77.6015 24.271 77.3433 24.5088C77.0906 24.7466 76.9422 25.058 76.8983 25.443H79.7003C79.6564 25.0636 79.5053 24.7551 79.247 24.5173C78.9943 24.2738 78.6784 24.1521 78.2993 24.1521Z" fill="#00094A"/>
<path d="M85.3418 23.5067L83.4298 28.0077H82.6222L80.7102 23.5067H81.5343L83.0342 27.116L84.5671 23.5067H85.3418Z" fill="#00094A"/>
<path d="M89.907 25.7827C89.907 25.8449 89.9015 25.927 89.8905 26.0289H86.3468C86.3962 26.4253 86.5638 26.7452 86.8495 26.9886C87.1407 27.2264 87.5005 27.3453 87.9291 27.3453C88.451 27.3453 88.8713 27.1641 89.19 26.8018L89.6268 27.3283C89.429 27.5661 89.1818 27.7473 88.8851 27.8718C88.5939 27.9964 88.267 28.0587 87.9044 28.0587C87.4429 28.0587 87.0335 27.9624 86.6764 27.7699C86.3193 27.5718 86.0418 27.2972 85.844 26.9461C85.6517 26.5951 85.5556 26.1988 85.5556 25.7572C85.5556 25.3212 85.649 24.9277 85.8358 24.5767C86.0281 24.2257 86.2891 23.9539 86.6187 23.7614C86.9539 23.5633 87.3302 23.4642 87.7478 23.4642C88.1653 23.4642 88.5362 23.5633 88.8603 23.7614C89.19 23.9539 89.4455 24.2257 89.6268 24.5767C89.8136 24.9277 89.907 25.3297 89.907 25.7827ZM87.7478 24.1521C87.3687 24.1521 87.05 24.271 86.7918 24.5088C86.5391 24.7466 86.3907 25.058 86.3468 25.443H89.1488C89.1048 25.0636 88.9537 24.7551 88.6955 24.5173C88.4428 24.2738 88.1269 24.1521 87.7478 24.1521Z" fill="#00094A"/>
<path d="M91.0056 21.7062H91.7967V28.0077H91.0056V21.7062Z" fill="#00094A"/>
<path d="M95.1781 28.0587C94.7441 28.0587 94.354 27.9596 94.0079 27.7614C93.6617 27.5633 93.3898 27.2915 93.192 26.9461C92.9997 26.5951 92.9035 26.1988 92.9035 25.7572C92.9035 25.3156 92.9997 24.9221 93.192 24.5767C93.3898 24.2257 93.6617 23.9539 94.0079 23.7614C94.354 23.5633 94.7441 23.4642 95.1781 23.4642C95.6122 23.4642 95.9995 23.5633 96.3401 23.7614C96.6863 23.9539 96.9555 24.2257 97.1478 24.5767C97.3456 24.9221 97.4445 25.3156 97.4445 25.7572C97.4445 26.1988 97.3456 26.5951 97.1478 26.9461C96.9555 27.2915 96.6863 27.5633 96.3401 27.7614C95.9995 27.9596 95.6122 28.0587 95.1781 28.0587ZM95.1781 27.3453C95.4583 27.3453 95.7083 27.2802 95.9281 27.15C96.1533 27.0141 96.3291 26.8272 96.4555 26.5895C96.5819 26.346 96.6451 26.0686 96.6451 25.7572C96.6451 25.4458 96.5819 25.1712 96.4555 24.9334C96.3291 24.69 96.1533 24.5031 95.9281 24.3729C95.7083 24.2427 95.4583 24.1776 95.1781 24.1776C94.8979 24.1776 94.6452 24.2427 94.4199 24.3729C94.2001 24.5031 94.0243 24.69 93.8925 24.9334C93.7661 25.1712 93.7029 25.4458 93.7029 25.7572C93.7029 26.0686 93.7661 26.346 93.8925 26.5895C94.0243 26.8272 94.2001 27.0141 94.4199 27.15C94.6452 27.2802 94.8979 27.3453 95.1781 27.3453Z" fill="#00094A"/>
<path d="M100.854 23.4642C101.277 23.4642 101.657 23.5604 101.992 23.7529C102.327 23.9454 102.588 24.2144 102.775 24.5597C102.967 24.9051 103.063 25.3042 103.063 25.7572C103.063 26.2101 102.967 26.6121 102.775 26.9631C102.588 27.3085 102.327 27.5774 101.992 27.7699C101.657 27.9624 101.277 28.0587 100.854 28.0587C100.541 28.0587 100.253 27.9964 99.9891 27.8718C99.7309 27.7473 99.5111 27.5661 99.3298 27.3283V29.6553H98.5386V23.5067H99.2968V24.22C99.4726 23.9709 99.6951 23.7841 99.9644 23.6595C100.234 23.5293 100.53 23.4642 100.854 23.4642ZM100.788 27.3453C101.069 27.3453 101.319 27.2802 101.538 27.15C101.764 27.0141 101.94 26.8272 102.066 26.5895C102.198 26.346 102.264 26.0686 102.264 25.7572C102.264 25.4458 102.198 25.1712 102.066 24.9334C101.94 24.69 101.764 24.5031 101.538 24.3729C101.319 24.2427 101.069 24.1776 100.788 24.1776C100.514 24.1776 100.264 24.2455 100.039 24.3814C99.8188 24.5116 99.643 24.6956 99.5111 24.9334C99.3847 25.1712 99.3215 25.4458 99.3215 25.7572C99.3215 26.0686 99.3847 26.346 99.5111 26.5895C99.6375 26.8272 99.8133 27.0141 100.039 27.15C100.264 27.2802 100.514 27.3453 100.788 27.3453Z" fill="#00094A"/>
<path d="M109.62 23.4642C110.17 23.4642 110.604 23.6284 110.922 23.9568C111.246 24.2851 111.409 24.772 111.409 25.4175V28.0077H110.617V25.5109C110.617 25.0749 110.518 24.7466 110.321 24.5258C110.128 24.305 109.851 24.1946 109.488 24.1946C109.087 24.1946 108.769 24.3248 108.532 24.5852C108.296 24.84 108.178 25.208 108.178 25.6892V28.0077H107.387V25.5109C107.387 25.0749 107.288 24.7466 107.09 24.5258C106.898 24.305 106.62 24.1946 106.258 24.1946C105.857 24.1946 105.538 24.3248 105.302 24.5852C105.065 24.84 104.947 25.208 104.947 25.6892V28.0077H104.156V23.5067H104.914V24.1776C105.074 23.9454 105.283 23.7699 105.541 23.651C105.799 23.5265 106.093 23.4642 106.423 23.4642C106.763 23.4642 107.065 23.535 107.329 23.6765C107.593 23.818 107.796 24.0247 107.939 24.2965C108.104 24.036 108.332 23.8322 108.623 23.685C108.92 23.5378 109.252 23.4642 109.62 23.4642Z" fill="#00094A"/>
<path d="M116.836 25.7827C116.836 25.8449 116.83 25.927 116.819 26.0289H113.276C113.325 26.4253 113.493 26.7452 113.778 26.9886C114.07 27.2264 114.43 27.3453 114.858 27.3453C115.38 27.3453 115.8 27.1641 116.119 26.8018L116.556 27.3283C116.358 27.5661 116.111 27.7473 115.814 27.8718C115.523 27.9964 115.196 28.0587 114.833 28.0587C114.372 28.0587 113.963 27.9624 113.605 27.7699C113.248 27.5718 112.971 27.2972 112.773 26.9461C112.581 26.5951 112.485 26.1988 112.485 25.7572C112.485 25.3212 112.578 24.9277 112.765 24.5767C112.957 24.2257 113.218 23.9539 113.548 23.7614C113.883 23.5633 114.259 23.4642 114.677 23.4642C115.094 23.4642 115.465 23.5633 115.789 23.7614C116.119 23.9539 116.374 24.2257 116.556 24.5767C116.743 24.9277 116.836 25.3297 116.836 25.7827ZM114.677 24.1521C114.298 24.1521 113.979 24.271 113.721 24.5088C113.468 24.7466 113.32 25.058 113.276 25.443H116.078C116.034 25.0636 115.883 24.7551 115.624 24.5173C115.372 24.2738 115.056 24.1521 114.677 24.1521Z" fill="#00094A"/>
<path d="M120.267 23.4642C120.822 23.4642 121.261 23.6312 121.585 23.9653C121.915 24.2936 122.08 24.7777 122.08 25.4175V28.0077H121.289V25.5109C121.289 25.0749 121.187 24.7466 120.984 24.5258C120.781 24.305 120.489 24.1946 120.11 24.1946C119.682 24.1946 119.344 24.3248 119.097 24.5852C118.849 24.84 118.726 25.208 118.726 25.6892V28.0077H117.935V23.5067H118.693V24.1861C118.852 23.9539 119.066 23.7756 119.336 23.651C119.61 23.5265 119.921 23.4642 120.267 23.4642Z" fill="#00094A"/>
<path d="M126 27.7444C125.885 27.8464 125.742 27.9256 125.571 27.9822C125.401 28.0332 125.225 28.0587 125.044 28.0587C124.604 28.0587 124.264 27.9369 124.022 27.6935C123.78 27.45 123.659 27.1018 123.659 26.6489V24.1776H122.918V23.5067H123.659V22.5215H124.451V23.5067H125.703V24.1776H124.451V26.6149C124.451 26.8584 124.508 27.0452 124.624 27.1754C124.745 27.3057 124.915 27.3708 125.135 27.3708C125.376 27.3708 125.582 27.3 125.753 27.1585L126 27.7444Z" fill="#00094A"/>
</svg>
